<?xml version="1.0" encoding="UTF-8" standalone="no"?>
<!-- Uploaded to: SVG Repo, www.svgrepo.com, Generator: SVG Repo Mixer Tools -->

<svg
   width="776.4718"
   height="99.819458"
   viewBox="0 0 187.087 24.050999"
   version="1.1"
   id="svg4"
   sodipodi:docname="bridgestone-26989-logo-svgrepo-com.svg"
   inkscape:version="1.4 (e7c3feb100, 2024-10-09)"
   xmlns:inkscape="http://www.inkscape.org/namespaces/inkscape"
   xmlns:sodipodi="http://sodipodi.sourceforge.net/DTD/sodipodi-0.dtd"
   xmlns="http://www.w3.org/2000/svg"
   xmlns:svg="http://www.w3.org/2000/svg">
  <defs
     id="defs4" />
  <sodipodi:namedview
     id="namedview4"
     pagecolor="#ffffff"
     bordercolor="#000000"
     borderopacity="0.25"
     inkscape:showpageshadow="2"
     inkscape:pageopacity="0.0"
     inkscape:pagecheckerboard="0"
     inkscape:deskcolor="#d1d1d1"
     inkscape:zoom="0.87875"
     inkscape:cx="388.6202"
     inkscape:cy="49.502134"
     inkscape:window-width="1920"
     inkscape:window-height="956"
     inkscape:window-x="0"
     inkscape:window-y="0"
     inkscape:window-maximized="1"
     inkscape:current-layer="g4" />
  <g
     fill-rule="evenodd"
     clip-rule="evenodd"
     id="g4"
     transform="translate(-2.834,-84.353)">
    <path
       d="m 120.781,89.778 -1.428,5.142 6.123,0.004 0.156,-0.514 c 1.211,-4.461 -2.172,-5.374 -3.535,-5.374 H 117.3 c -2.324,0 -5.227,0.279 -6.236,3.879 -0.859,3.143 -1.363,4.538 -0.178,6.11 0.721,0.953 2.475,1.217 4.898,1.723 1.818,0.406 1.516,1.521 1.213,2.688 -0.254,0.861 -0.783,1.369 -1.643,1.369 -0.555,0 -1.211,-0.381 -0.959,-1.268 l 0.496,-1.922 -6.227,-0.004 -0.506,1.875 c -0.758,2.484 0.758,4.916 4.09,4.916 h 3.434 c 4.443,0 6.637,-1.156 7.904,-5.398 0.453,-1.521 0.93,-3.291 0.227,-4.537 -0.959,-1.699 -4.98,-2.231 -6.312,-2.585 -0.857,-0.229 -0.621,-1.111 -0.443,-1.976 0.389,-1.417 0.721,-1.776 1.219,-2.213 l 2.035,-2.013 c 0.194,-0.137 0.516,-0.123 0.469,0.098 z m -95.707,6.363 c 1.904,0.658 4.48,2.232 3.261,6.375 -1.312,4.461 -4.141,5.887 -8.787,5.887 H 2.834 L 18.438,93.695 15.61,104.038 h 1.515 c 1.111,0 1.818,-0.711 2.121,-1.623 l 5.05,-18.048 c 3.636,0 7.665,0.419 6.868,5.678 -0.669,4.416 -3.602,5.448 -6.054,5.911 -0.158,0.02 -0.158,0.172 -0.036,0.185 z"
       id="path2" />
    <path
       fill="#ca3132"
       d="M 24.033,84.353 7.117,100.172 11.536,84.353 Z"
       id="path3" />
    <path
       d="m 46.762,108.402 5.353,-19.365 h 6.261 l -5.353,19.365 z m 83.279,-13.582 2.42,-1.93 h -5.654 l 1.061,-3.854 h 12.875 l -1.109,3.854 h -3.385 l -4.291,15.512 h -6.262 l 3.152,-11.406 c 0.23,-0.912 0.513,-1.641 1.193,-2.176 z m 37.941,-5.042 -5.148,18.624 h 6.26 l 4.041,-14.701 c 0.807,-3.143 -0.707,-4.665 -2.93,-4.665 H 159.5 l -5.352,19.366 h 6.262 l 3.977,-14.501 c 0.441,-1.448 0.77,-1.822 1.217,-2.235 l 1.943,-2.003 c 0.158,-0.093 0.508,-0.157 0.435,0.115 z m -66.773,8.306 1.27,-0.748 c 0.297,-0.213 1.18,-0.668 2.342,-0.695 h 2.879 l -1.061,3.752 h -6.414 l -0.807,2.84 c -0.203,0.76 0.354,1.318 0.959,1.318 h 5.15 l -1.061,3.852 h -7.271 c -3.333,0 -4.696,-2.889 -4.09,-4.916 l 2.878,-10.596 c 0.909,-3.549 3.939,-3.854 6.261,-3.854 h 7.574 l -1.061,3.854 h -5.199 c -0.961,0 -1.465,0.659 -1.566,1.064 l -1.102,3.848 c -0.085,0.207 -0.062,0.48 0.319,0.281 z m -12.972,-8.306 -1.517,5.457 6.278,-0.01 0.292,-1.067 c 1.212,-4.461 -2.423,-5.121 -3.787,-5.121 h -4.747 c -2.323,0 -5.353,0.305 -6.261,3.854 l -2.878,10.596 c -0.757,2.484 0.757,4.916 4.09,4.916 h 9.645 l 2.903,-10.486 h -6.264 l -1.841,6.635 h -1.312 c -0.555,0 -1.162,-0.559 -0.858,-1.369 l 2.517,-9.28 c 0.184,-0.581 0.505,-1.654 1.216,-2.208 l 2.04,-2.003 c 0.109,-0.122 0.557,-0.186 0.484,0.086 z m -45.349,0.005 -5.161,18.62 h 6.312 c 0,0 0.943,-3.604 1.666,-6.031 0.657,-2.205 -1.792,-3.447 -2.095,-3.447 -0.304,0 -0.304,-0.457 0,-0.457 1.716,-0.051 3.434,-0.355 4.519,-4.36 1.277,-4.711 -2.863,-5.07 -4.393,-5.07 h -9.493 l -5.403,19.366 h 6.312 L 39.15,93.908 c 0.312,-1.138 0.774,-1.878 1.242,-2.221 l 2.052,-1.995 c 0.105,-0.122 0.506,-0.153 0.444,0.091 z m 138.423,8.301 1.27,-0.748 c 0.297,-0.213 1.182,-0.668 2.342,-0.695 h 2.879 l -1.061,3.752 h -6.412 l -0.809,2.84 c -0.201,0.76 0.354,1.318 0.959,1.318 h 5.15 l -1.061,3.852 h -7.27 c -3.334,0 -4.697,-2.889 -4.092,-4.916 l 2.879,-10.596 c 0.908,-3.549 3.939,-3.854 6.262,-3.854 h 7.574 l -1.061,3.854 h -5.201 c -0.959,0 -1.465,0.659 -1.564,1.064 l -1.102,3.848 c -0.085,0.207 -0.063,0.48 0.318,0.281 z M 70.841,89.037 h -9.14 l -5.402,19.366 h 8.887 c 4.443,0 6.665,-1.52 7.423,-4.359 l 2.675,-9.632 c 1.213,-4.462 -3.08,-5.375 -4.443,-5.375 z m -0.501,0.737 -3.632,12.947 c -0.656,2.129 -2.271,1.826 -3.029,1.826 l 2.917,-10.651 c 0.342,-1.093 0.744,-1.822 1.232,-2.217 l 2.028,-1.993 c 0.16,-0.147 0.606,-0.16 0.484,0.088 z m 80.545,-0.737 h -3.889 c -2.322,0 -5.352,0.305 -6.26,3.854 l -2.879,10.596 c -0.758,2.484 0.758,4.916 4.09,4.916 h 3.283 c 4.443,0 6.664,-1.52 7.422,-4.359 l 2.676,-9.632 c 1.213,-4.462 -3.08,-5.375 -4.443,-5.375 z m -0.551,0.731 -3.787,13.715 c -0.252,0.861 -0.959,1.316 -1.516,1.316 -0.555,0 -1.211,-0.404 -0.908,-1.217 l 2.619,-9.684 c 0.422,-1.396 0.789,-1.849 1.211,-2.237 l 1.943,-2.003 c 0.135,-0.119 0.489,-0.093 0.438,0.11 z"
       id="path4" />
  </g>
</svg>
