<?xml version="1.0" encoding="UTF-8" standalone="no"?>
<!-- Uploaded to: SVG Repo, www.svgrepo.com, Generator: SVG Repo Mixer Tools -->

<svg
   width="800"
   height="103.99858"
   viewBox="0 -222.5 512 66.559092"
   version="1.1"
   preserveAspectRatio="xMidYMid"
   id="svg1"
   sodipodi:docname="oracle-svgrepo-com.svg"
   inkscape:version="1.4 (e7c3feb100, 2024-10-09)"
   xmlns:inkscape="http://www.inkscape.org/namespaces/inkscape"
   xmlns:sodipodi="http://sodipodi.sourceforge.net/DTD/sodipodi-0.dtd"
   xmlns="http://www.w3.org/2000/svg"
   xmlns:svg="http://www.w3.org/2000/svg">
  <defs
     id="defs1" />
  <sodipodi:namedview
     id="namedview1"
     pagecolor="#ffffff"
     bordercolor="#000000"
     borderopacity="0.25"
     inkscape:showpageshadow="2"
     inkscape:pageopacity="0.0"
     inkscape:pagecheckerboard="0"
     inkscape:deskcolor="#d1d1d1"
     inkscape:zoom="0.87875"
     inkscape:cx="400"
     inkscape:cy="51.778094"
     inkscape:window-width="1920"
     inkscape:window-height="956"
     inkscape:window-x="0"
     inkscape:window-y="0"
     inkscape:window-maximized="1"
     inkscape:current-layer="svg1" />
  <g
     id="g1"
     transform="translate(0,-222.5)">
    <path
       d="m 221.03422,43.302858 h 33.83192 L 236.97703,14.521957 204.14434,66.559089 H 189.20162 L 229.13711,4.0514 C 230.87347,1.5258267 233.76727,0 236.97703,0 c 3.10413,0 5.99798,1.4732379 7.68175,3.9461723 l 40.09331,62.6129167 h -14.94277 l -7.0506,-11.628111 h -34.25313 z m 155.21696,11.62812 V 0.63139122 H 363.57076 V 60.245202 c 0,1.631096 0.6315,3.209553 1.84156,4.419705 1.20999,1.210194 2.84117,1.894182 4.63014,1.894182 h 57.82497 l 7.47139,-11.628111 z M 166.47156,45.19704 c 12.31231,0 22.30933,-9.944384 22.30933,-22.256526 0,-12.312099 -9.99702,-22.30912278 -22.30933,-22.30912278 H 110.99843 V 66.559089 h 12.67539 V 12.259511 h 41.95585 c 5.8932,0 10.62854,4.78801 10.62854,10.681003 0,5.892985 -4.73534,10.681046 -10.62854,10.681046 l -35.74709,-0.05264 37.85159,32.990168 h 18.41588 L 160.68397,45.19704 Z M 32.969421,66.559089 C 14.76938,66.559089 0,51.826644 0,33.62156 0,15.416434 14.76938,0.63139122 32.969421,0.63139122 h 38.319872 c 18.205084,0 32.963957,14.78504278 32.963957,32.99016878 0,18.205084 -14.758873,32.937529 -32.963957,32.937529 z M 70.436894,54.930978 c 11.791437,0 21.341218,-9.52349 21.341218,-21.309418 0,-11.785978 -9.549781,-21.362049 -21.341218,-21.362049 H 33.816352 c -11.785969,0 -21.341226,9.576071 -21.341226,21.362049 0,11.785928 9.555257,21.309418 21.341226,21.309418 z M 311.21781,66.559089 c -18.20513,0 -32.99002,-14.732445 -32.99002,-32.937529 0,-18.205126 14.78489,-32.99016878 32.99002,-32.99016878 h 45.51273 L 349.31175,12.259511 H 312.0597 c -11.78602,0 -21.36188,9.576071 -21.36188,21.362049 0,11.785928 9.57586,21.309418 21.36188,21.309418 h 45.72303 l -7.4713,11.628111 z M 466.27696,54.930978 c -9.73406,0 -17.99474,-6.524384 -20.5204,-15.521703 h 54.19452 l 7.47138,-11.628111 h -61.6659 c 2.52566,-8.944688 10.78634,-15.521653 20.5204,-15.521653 h 37.19946 L 511.0004,0.63139122 h -45.56533 c -18.20512,0 -32.99001,14.78504278 -32.99001,32.99016878 0,18.205084 14.78489,32.937529 32.99001,32.937529 H 504.5287 L 512,54.930978 Z"
       fill="#ea1b22"
       id="path1" />
  </g>
</svg>
