<?xml version="1.0" encoding="UTF-8" standalone="no"?>
<svg
   width="776.43597"
   height="252.52019"
   viewBox="0 0 776.43597 252.52019"
   fill="none"
   version="1.1"
   id="svg8"
   sodipodi:docname="syny_logo.svg"
   inkscape:version="1.4 (e7c3feb100, 2024-10-09)"
   xmlns:inkscape="http://www.inkscape.org/namespaces/inkscape"
   xmlns:sodipodi="http://sodipodi.sourceforge.net/DTD/sodipodi-0.dtd"
   xmlns="http://www.w3.org/2000/svg"
   xmlns:svg="http://www.w3.org/2000/svg">
  <defs
     id="defs8" />
  <sodipodi:namedview
     id="namedview8"
     pagecolor="#ffffff"
     bordercolor="#000000"
     borderopacity="0.25"
     inkscape:showpageshadow="2"
     inkscape:pageopacity="0.0"
     inkscape:pagecheckerboard="0"
     inkscape:deskcolor="#d1d1d1"
     inkscape:zoom="0.76203704"
     inkscape:cx="390.40097"
     inkscape:cy="126.63426"
     inkscape:window-width="1920"
     inkscape:window-height="956"
     inkscape:window-x="0"
     inkscape:window-y="0"
     inkscape:window-maximized="1"
     inkscape:current-layer="svg8" />
  <path
     fill-rule="evenodd"
     clip-rule="evenodd"
     d="m 98.545,76.987595 c -4.184,0 -7.707,2.9 -10.13,6.311 -3.906,5.499 -10.327,9.087 -17.586,9.087 v 0 c -6.272,0 -13.174,0.502 -17.609,4.936 L 36.916,113.62559 c -2.405,2.405 -6.305,2.405 -8.71,0 v 0 c -2.405,-2.405 -2.405,-6.305 0,-8.71 L 44.277,88.844595 c 4.531,-4.531 4.995,-11.608 4.995,-18.016 v 0 c 0,-11.905 9.652,-21.556 21.557,-21.556 7.259,0 13.68,3.588 17.586,9.087 2.423,3.411 5.946,6.31 10.13,6.31 v 0 c 4.184,0 7.707,-2.899 10.13,-6.31 3.906,-5.499 10.327,-9.087 17.586,-9.087 11.906,0 21.557,9.651 21.557,21.556 0,11.906 -9.651,21.557 -21.557,21.557 -7.259,0 -13.68,-3.588 -17.586,-9.087 -2.423,-3.411 -5.946,-6.311 -10.13,-6.311 z m 0,55.431995 c -4.184,0 -7.707,2.899 -10.13,6.31 -3.906,5.499 -10.327,9.087 -17.586,9.087 -5.84,0 -11.138,-2.322 -15.02,-6.094 -4.681,-4.548 -10.118,-9.303 -16.643,-9.303 v 0 c -5.863,0 -10.901,4.126 -15.949,7.108 -2.292,1.353 -4.965,2.13 -7.819,2.13 -8.504,0 -15.398,-6.894 -15.398,-15.397 0,-8.504 6.894,-15.398 15.398,-15.398 2.854,0 5.527,0.777 7.819,2.131 5.048,2.981 10.086,7.108 15.949,7.108 v 0 c 6.525,0 11.962,-4.756 16.643,-9.303 3.882,-3.772 9.18,-6.095 15.02,-6.095 7.259,0 13.68,3.588 17.586,9.087 2.423,3.411 5.946,6.311 10.13,6.311 v 0 c 4.184,0 7.707,-2.9 10.13,-6.311 3.906,-5.499 10.327,-9.087 17.586,-9.087 5.841,0 11.139,2.323 15.021,6.095 4.68,4.547 10.117,9.303 16.642,9.303 v 0 c 5.862,0 10.9,-4.127 15.948,-7.108 2.292,-1.354 4.965,-2.131 7.82,-2.131 8.503,0 15.397,6.894 15.397,15.398 0,8.503 -6.894,15.397 -15.397,15.397 -2.855,0 -5.528,-0.777 -7.82,-2.131 -5.048,-2.981 -10.086,-7.107 -15.948,-7.107 v 0 c -6.525,0 -11.962,4.755 -16.642,9.302 -3.882,3.773 -9.18,6.095 -15.021,6.095 -7.259,0 -13.68,-3.588 -17.586,-9.087 -2.423,-3.411 -5.946,-6.31 -10.13,-6.31 z m -27.716,70.829 c 7.259,0 13.68,-3.588 17.586,-9.088 2.423,-3.41 5.946,-6.31 10.13,-6.31 v 0 c 4.184,0 7.707,2.9 10.13,6.31 3.906,5.5 10.327,9.088 17.586,9.088 11.906,0 21.557,-9.652 21.557,-21.557 v 0 c 0,-6.311 0.491,-13.265 4.954,-17.728 l 15.669,-15.669 c 2.406,-2.406 2.406,-6.305 0,-8.711 v 0 c -2.405,-2.405 -6.304,-2.405 -8.71,0 l -15.572,15.573 c -4.503,4.503 -11.529,4.978 -17.898,4.978 v 0 c -7.259,0 -13.68,3.588 -17.586,9.088 -2.423,3.41 -5.946,6.31 -10.13,6.31 v 0 c -4.184,0 -7.707,-2.9 -10.13,-6.31 -3.906,-5.5 -10.327,-9.088 -17.586,-9.088 -11.905,0 -21.557,9.652 -21.557,21.557 0,11.905 9.652,21.557 21.557,21.557 z"
     fill="#8aad00"
     id="path1" />
  <circle
     cx="15.397995"
     cy="70.828598"
     r="15.3976"
     fill="#bfd272"
     id="circle1" />
  <circle
     cx="15.397995"
     cy="181.69159"
     r="15.3976"
     fill="#bfd272"
     id="circle2" />
  <circle
     cx="181.69199"
     cy="70.828598"
     r="15.3976"
     fill="#bfd272"
     id="circle3" />
  <circle
     cx="181.69199"
     cy="181.69159"
     r="15.3976"
     fill="#bfd272"
     id="circle4" />
  <circle
     cx="126.26001"
     cy="237.12259"
     r="15.3976"
     fill="#bfd272"
     id="circle5" />
  <circle
     cx="70.828995"
     cy="237.12259"
     r="15.3976"
     fill="#bfd272"
     id="circle6" />
  <circle
     cx="126.26001"
     cy="15.3976"
     r="15.3976"
     fill="#bfd272"
     id="circle7" />
  <circle
     cx="70.828995"
     cy="15.3976"
     r="15.3976"
     fill="#bfd272"
     id="circle8" />
  <path
     d="m 377.473,96.795595 -35.313,2.173 c -0.604,-3.019 -1.902,-5.735 -3.894,-8.149 -1.992,-2.475 -4.618,-4.437 -7.877,-5.886 -3.2,-1.509 -7.033,-2.264 -11.5,-2.264 -5.976,0 -11.016,1.268 -15.121,3.803 -4.105,2.475 -6.157,5.795 -6.157,9.96 0,3.32 1.328,6.126995 3.984,8.420995 2.656,2.294 7.214,4.135 13.673,5.524 l 25.171,5.07 c 13.522,2.777 23.603,7.244 30.243,13.401 6.64,6.157 9.96,14.246 9.96,24.267 0,9.115 -2.686,17.113 -8.058,23.995 -5.313,6.881 -12.617,12.253 -21.913,16.117 -9.236,3.803 -19.89,5.704 -31.963,5.704 -18.411,0 -33.079,-3.833 -44.005,-11.499 -10.866,-7.727 -17.234,-18.23 -19.106,-31.51 l 37.939,-1.992 c 1.147,5.613 3.924,9.899 8.331,12.857 4.406,2.898 10.05,4.346 16.932,4.346 6.761,0 12.193,-1.297 16.298,-3.893 4.165,-2.656 6.278,-6.067 6.339,-10.232 -0.061,-3.501 -1.54,-6.368 -4.437,-8.602 -2.898,-2.294 -7.365,-4.044 -13.401,-5.252 l -24.086,-4.798 c -13.582,-2.717 -23.693,-7.425 -30.333,-14.126 -6.579,-6.7 -9.869,-15.242 -9.869,-25.623995 0,-8.934 2.414,-16.631 7.243,-23.09 4.89,-6.459 11.741,-11.439 20.554,-14.94 8.874,-3.501 19.257,-5.252 31.149,-5.252 17.566,0 31.389,3.713 41.47,11.137 10.141,7.425 16.057,17.536 17.747,30.334 z m 30.874,151.574995 c -4.89,0 -9.477,-0.393 -13.763,-1.177 -4.226,-0.725 -7.727,-1.66 -10.504,-2.807 l 8.693,-28.794 c 4.527,1.388 8.602,2.143 12.224,2.264 3.682,0.12 6.851,-0.725 9.507,-2.536 2.716,-1.811 4.92,-4.889 6.61,-9.236 l 2.264,-5.885 -49.892,-143.063995 h 40.565 l 28.794,102.136995 h 1.449 L 473.359,57.135595 h 40.837 L 460.139,211.24659 c -2.595,7.485 -6.127,14.004 -10.593,19.558 -4.407,5.614 -9.991,9.93 -16.752,12.948 -6.76,3.078 -14.91,4.618 -24.447,4.618 z m 143.763,-132.561 v 80.406 H 513.537 V 57.135595 h 36.762 v 24.538 h 1.629 c 3.079,-8.089 8.24,-14.487 15.484,-19.196 7.244,-4.768 16.027,-7.153 26.349,-7.153 9.658,0 18.079,2.113 25.263,6.338 7.183,4.226 12.767,10.262 16.751,18.11 3.984,7.787 5.976,17.083 5.976,27.887995 v 88.555 h -38.573 v -81.673 c 0.06,-8.512 -2.113,-15.151995 -6.519,-19.920995 -4.407,-4.829 -10.474,-7.243 -18.2,-7.243 -5.192,0 -9.779,1.116 -13.763,3.35 -3.924,2.233 -7.003,5.493 -9.236,9.778995 -2.173,4.226 -3.29,9.326 -3.35,15.302 z m 118.477,132.561 c -4.889,0 -9.477,-0.393 -13.763,-1.177 -4.225,-0.725 -7.727,-1.66 -10.503,-2.807 l 8.692,-28.794 c 4.528,1.388 8.602,2.143 12.224,2.264 3.682,0.12 6.851,-0.725 9.507,-2.536 2.717,-1.811 4.92,-4.889 6.61,-9.236 l 2.264,-5.885 -49.891,-143.063995 h 40.565 l 28.793,102.136995 h 1.449 L 735.6,57.135595 h 40.836 L 722.38,211.24659 c -2.596,7.485 -6.127,14.004 -10.594,19.558 -4.407,5.614 -9.99,9.93 -16.751,12.948 -6.761,3.078 -14.91,4.618 -24.448,4.618 z"
     fill="#2b2b2b"
     id="path8"
     style="fill:#1a1a1a;fill-opacity:1" />
</svg>
